<svg width="32" height="20" viewBox="0 0 32 20" fill="none" xmlns="http://www.w3.org/2000/svg">
<path d="M9.46944 6.5122L9.4943 6.61391L11.3906 14.3712L11.3906 14.3715C11.3963 14.3948 11.3927 14.4195 11.3699 14.4464C11.3462 14.4744 11.3031 14.5001 11.2419 14.5001H11.2256C11.1328 14.5001 11.0854 14.4417 11.0769 14.407L11.0768 14.4066L10.578 12.3804L10.4843 11.9999H10.0925H5.93937H5.55101L5.45492 12.3762L4.93636 14.4069C4.93634 14.407 4.93632 14.4071 4.9363 14.4072C4.92688 14.4433 4.87911 14.5001 4.7875 14.5001C4.72514 14.5001 4.68198 14.474 4.6584 14.4461C4.63583 14.4193 4.63211 14.3945 4.63811 14.3706L6.60488 6.55569L6.60488 6.55569L6.60542 6.55353C6.75298 5.95601 7.3343 5.49985 8.04375 5.49985C8.24704 5.49985 8.46142 5.53813 8.67864 5.62293C9.05706 5.7721 9.34123 6.10823 9.46944 6.5122ZM6.04765 11.7028L6.59479 11.9594L6.64844 11.7495H9.78563H10.4238L10.2711 11.1299L9.16861 6.65506L9.16851 6.65466C9.12688 6.48629 9.05312 6.32531 8.95448 6.18934C8.86016 6.05934 8.72012 5.92134 8.53052 5.84663C8.37365 5.78339 8.20982 5.74967 8.04438 5.74967C7.53436 5.74967 7.06267 6.08015 6.93399 6.59358C6.93384 6.59415 6.9337 6.59472 6.93356 6.59529L5.77557 11.1263L6.15325 11.2228L6.0464 11.7022L6.04765 11.7028ZM15.8331 1.24982V0.749817H15.3331H6C3.18095 0.749817 0.833125 2.90672 0.833125 5.62506V14.3749C0.833125 17.0939 3.18166 19.2502 6 19.2502H15.3331H15.8331V18.7502V1.24982ZM16.1669 18.7502V19.2502H16.6669H26C28.8191 19.2502 31.1669 17.0933 31.1669 14.3749V5.62506C31.1669 2.90605 28.8183 0.749817 26 0.749817H16.6669H16.1669V1.24982V18.7502ZM23.1559 12.5467C22.4848 11.97 21.9823 11.3162 21.6068 10.6607C21.5947 10.6394 21.5929 10.624 21.5933 10.6129C21.5938 10.6002 21.5979 10.5842 21.6088 10.5671C21.6295 10.5343 21.6738 10.4997 21.7488 10.4997C21.8179 10.4997 21.8693 10.5349 21.8931 10.5757C22.3101 11.2926 22.891 12.0102 23.6997 12.6216L24.0007 12.8492L24.3022 12.6221C26.426 11.0216 26.9728 8.68399 27.116 7.56468L27.188 7.00125H26.62H19.3225C19.2697 7.00125 19.2282 6.98143 19.2018 6.95674C19.176 6.93256 19.1681 6.90807 19.1681 6.88776V6.8655C19.1681 6.84519 19.176 6.8207 19.2018 6.79652C19.2282 6.77183 19.2697 6.75201 19.3225 6.75201H23.3344H23.8344V6.25201V5.61568C23.8344 5.59537 23.8423 5.57088 23.8681 5.5467C23.8944 5.52201 23.9359 5.5022 23.9888 5.5022H24.0125C24.0653 5.5022 24.1068 5.52201 24.1332 5.5467C24.159 5.57088 24.1669 5.59537 24.1669 5.61568V6.25201V6.75201H24.6669H28.4812L28.7361 6.99105C28.7189 6.99636 28.6997 6.99949 28.6787 6.99949H27.9506H27.5089L27.4544 7.4378C27.318 8.53541 26.7964 10.8696 24.8448 12.5467L24.2609 13.0484L24.9567 13.3778C25.9581 13.8519 27.1885 14.1662 28.6908 14.2351C28.7973 14.2402 28.8331 14.3148 28.8331 14.348V14.3703C28.8331 14.3917 28.8246 14.4173 28.7968 14.4422C28.7684 14.4675 28.724 14.4869 28.6684 14.4843L28.6676 14.4843C26.7792 14.399 25.344 13.9459 24.248 13.3177L23.9992 13.1751L23.7505 13.3179C22.6554 13.9464 21.2197 14.3989 19.3312 14.4842L19.3302 14.4843C19.2761 14.4868 19.2315 14.4678 19.2023 14.4419C19.1738 14.4165 19.1656 14.3907 19.1656 14.3703V14.348C19.1656 14.3144 19.2023 14.2399 19.3072 14.2352L19.3076 14.2351C20.8121 14.1651 22.0403 13.8508 23.0431 13.3782L23.7408 13.0494L23.1559 12.5467ZM6 0.5H26C29.0629 0.5 31.5 2.8297 31.5 5.62506V14.3749C31.5 17.1703 29.0629 19.5 26 19.5H6C2.93713 19.5 0.5 17.1703 0.5 14.3749V5.62506C0.5 2.82964 2.93595 0.5 6 0.5Z" fill="#8696BB" stroke="#8696BB"/>
</svg>
